<?xml version="1.0" standalone="no"?><!DOCTYPE svg PUBLIC "-//W3C//DTD SVG 1.1//EN" "http://www.w3.org/Graphics/SVG/1.1/DTD/svg11.dtd"><svg t="1619347480055" class="icon" viewBox="0 0 1024 1024" version="1.1" xmlns="http://www.w3.org/2000/svg" p-id="1276" data-spm-anchor-id="a313x.7781069.0.i3" xmlns:xlink="http://www.w3.org/1999/xlink" width="200" height="200"><defs><style type="text/css"></style></defs><path d="M280.379 89.579h71.1v78.3h-53.1c-32.4 0-48.6 18-48.6 55.8v172.8c0 56.7-26.1 94.5-78.3 113.4 52.2 21.6 78.3 59.4 78.3 113.4v173.7c0 36 16.2 54.9 48.6 54.9h53.1v78.3h-71.1c-41.4 0-72.9-13.5-94.5-39.6-19.8-24.3-29.7-56.7-29.7-97.2v-164.7c0-26.1-5.4-45-16.2-55.8-12.6-14.4-35.1-22.5-66.6-24.3v-77.4c31.5-2.7 54-10.8 66.6-23.4 10.8-12.6 16.2-31.5 16.2-56.7V227.214c0-41.4 9.9-73.8 29.7-98.1 21.6-27 53.1-39.6 94.5-39.6z m392.4 0h71.1c40.5 0 72 12.6 94.5 39.6 19.8 24.3 29.7 56.7 29.7 98.1v163.8c0 25.2 5.4 45 17.1 57.6 11.7 12.6 33.3 19.8 65.7 22.5v77.4c-32.4 1.8-54 9.9-66.6 24.3-10.8 10.8-16.2 29.7-16.2 55.8v164.7c0 40.5-9.9 72.9-29.7 97.2-22.5 26.1-54 39.6-94.5 39.6h-71.1v-78.3h53.1c32.4 0 48.6-18.9 48.6-54.9V623.214c0-54 26.1-91.8 78.3-113.4-52.2-18.9-78.3-56.7-78.3-113.4V223.68c0-37.8-16.2-55.8-48.6-55.8h-53.1v-78.3z" p-id="1277"></path></svg>